<svg width="36" height="38" viewBox="0 0 36 38" fill="currentColor" xmlns="http://www.w3.org/2000/svg">
<path d="M31.5887 0.508427C33.7225 0.349081 35.4125 2.09167 35.4129 4.10804V25.9908C35.7592 27.902 35.04 29.6869 34.1278 30.9616C33.1486 32.3294 31.6903 33.4943 30.0633 34.0426C28.5238 34.5614 26.8684 34.5942 25.4169 34.1285C23.9731 33.6653 22.5119 32.6136 21.9266 30.8405C21.3097 28.9704 21.9992 27.1075 23.1141 25.8678C24.2721 24.5805 26.0311 23.7477 28.0692 23.7477C28.9005 23.7477 29.7204 23.8382 30.4129 23.9391V9.41858L14.7157 11.4479V29.7946C15.0545 31.5813 14.5393 33.211 13.4159 34.4811C12.3309 35.7075 10.7855 36.4906 9.24595 37.0094C5.90181 38.1361 1.85503 37.318 0.691265 33.7916C0.276886 32.5355 0.615015 31.3499 0.957866 30.5826C1.32377 29.764 1.86995 29.0185 2.43541 28.4069C3.00685 27.7888 3.68348 27.2159 4.39439 26.7799C5.04265 26.3824 6.00028 25.9244 7.07603 25.9244L7.47447 25.9313C7.5647 25.9346 7.65485 25.9403 7.74498 25.9459C8.34839 25.9808 9.03338 26.0596 9.71568 26.1832V6.54749C9.71586 4.79946 10.9836 3.21069 12.826 2.96839L31.3807 0.529911L31.5887 0.508427Z" fill="currentColor"/>
</svg>
