<svg width="39" height="39" viewBox="0 0 39 39" fill="none" xmlns="http://www.w3.org/2000/svg">
<path d="M2.47817 19.4379C2.5363 16.2333 4.20364 13.1576 5.95934 12.7208C7.71507 12.284 9.68777 13.9692 9.75872 15.5054C9.82958 17.0415 9.00639 17.6023 8.97096 19.5557C8.93556 21.5091 9.46576 23.4309 10.4967 25.0904C11.5277 26.75 13.016 28.0769 14.7829 28.9106C16.5499 29.7444 18.5203 30.0502 20.4568 29.7908C22.3933 29.5314 24.214 28.7182 25.6992 27.4488C27.1844 26.1795 28.2705 24.5075 28.8284 22.6352C29.3863 20.7627 29.3918 18.7689 28.8435 16.8936C28.2952 15.0183 27.3549 13.4606 25.738 12.0644C24.121 10.6682 20.374 9.44883 19.4977 8.42348C18.6218 7.39791 20.2535 4.39772 23.1143 4.12845C25.9756 3.85938 29.983 7.14899 29.983 7.14899C32.4087 9.24372 34.1779 11.9944 35.0774 15.0706C35.9769 18.1469 35.9683 21.4178 35.0531 24.4895C34.138 27.5611 32.3551 30.3035 29.9186 32.3859C27.4822 34.4682 24.4959 35.8016 21.3193 36.2272C18.1425 36.6527 14.9101 36.1522 12.0115 34.7845C9.11285 33.4168 6.67116 31.2405 4.97981 28.518C3.2885 25.7955 2.42006 22.6424 2.47817 19.4379Z" fill="#E7E7E8"/>
<line x1="17.1911" y1="5.89398" x2="20.7235" y2="11.0066" stroke="#E7E7E8" stroke-width="6" stroke-linecap="round"/>
<line x1="17.3954" y1="5.05697" x2="24.263" y2="2.99127" stroke="#E7E7E8" stroke-width="6" stroke-linecap="round"/>
</svg>
