<svg width="39" height="41" viewBox="0 0 39 41" fill="currentColor" xmlns="http://www.w3.org/2000/svg">
<path d="M26.5769 35.6523C26.0933 37.6367 23.9875 39.1308 21.4636 39.1309C18.9398 39.1306 16.8337 37.6367 16.3503 35.6523H26.5769ZM29.9685 33.8916H7.00362C5.02241 33.8916 4.24716 31.3198 5.89815 30.2246L9.18135 28.0459C9.18138 28.0443 9.18132 28.0426 9.18135 28.041C9.18766 27.7316 9.19696 27.4036 9.20772 27.0566C9.17987 26.8064 9.16427 26.5512 9.16475 26.293C9.17072 23.1924 9.24131 19.5633 9.48018 16.6387L29.9685 33.8916ZM21.57 0C23.0105 0.000136237 24.1792 1.16788 24.1794 2.6084C24.1794 3.0347 24.407 3.43762 24.5935 3.79297C28.5012 4.69654 32.0169 7.55888 33.4392 12.3818C34.2079 14.9864 34.3847 21.3195 34.3942 26.293C34.3947 26.5512 34.3791 26.8064 34.3513 27.0566C34.362 27.4036 34.3723 27.7316 34.3786 28.041C34.3814 28.1783 34.3768 28.3133 34.3698 28.4463L11.5124 9.19824C13.1872 6.43628 15.7188 4.67487 18.486 3.91406C18.6791 3.5303 18.9616 3.08365 18.9616 2.6084C18.9618 1.16788 20.1295 0.000139987 21.57 0Z" fill="currentColor"/>
<line x1="4.22522" y1="10.6159" x2="35.6159" y2="36.7748" stroke="currentColor" stroke-width="6" stroke-linecap="round"/>
</svg>
