<svg width="41" height="39" viewBox="0 0 41 39" fill="currentColor" xmlns="http://www.w3.org/2000/svg">
<path d="M16.2157 18.7347V29.2963C16.5545 31.083 16.0394 32.7128 14.9159 33.9828C13.8309 35.2092 12.2855 35.9924 10.746 36.5111C7.40196 37.6378 3.35521 36.8194 2.19133 33.2933C1.77681 32.0371 2.11507 30.8516 2.45793 30.0844C2.82383 29.2656 3.36994 28.5203 3.93547 27.9086C4.50697 27.2904 5.18345 26.7177 5.89446 26.2816C6.54272 25.8841 7.50025 25.4261 8.5761 25.4261L8.97453 25.433C9.06471 25.4363 9.15496 25.442 9.24504 25.4476C9.84841 25.4826 10.5335 25.5613 11.2157 25.6849V14.5238L16.2157 18.7347ZM33.0068 32.8754C32.5475 33.1485 32.0636 33.3757 31.5634 33.5443C30.0239 34.063 28.3685 34.0958 26.9169 33.6302C25.4733 33.1671 24.012 32.1151 23.4267 30.3422C22.8506 28.5963 23.4129 26.8565 24.3974 25.6244L33.0068 32.8754ZM33.0888 0.0101313C35.2227 -0.149172 36.9128 1.59324 36.913 3.60974V25.4926C37.01 26.0278 37.0207 26.5529 36.9697 27.0599L31.913 22.8021V8.92029L17.622 10.767L11.2704 5.41931C11.5327 3.93377 12.708 2.68288 14.3261 2.47009L32.8808 0.0316157L33.0888 0.0101313Z" fill="currentColor"/>
<line x1="4.22714" y1="6.63706" x2="37.6377" y2="34.7723" stroke="currentColor" stroke-width="6" stroke-linecap="round"/>
</svg>
