<svg width="36" height="40" viewBox="0 0 36 40" fill="none" xmlns="http://www.w3.org/2000/svg">
<path d="M18.7078 3.48011C23.6007 3.51269 28.4769 6.4789 30.2175 12.3815C30.9863 14.9859 31.163 21.319 31.1726 26.2926C31.1731 26.551 31.1575 26.8059 31.1296 27.0563C31.1404 27.4034 31.1507 27.7312 31.157 28.0407C31.2182 31.0381 28.9295 33.0436 25.9314 33.0436H11.1843C8.18624 33.0436 5.89853 31.0381 5.95971 28.0407C5.96603 27.7312 5.97532 27.4034 5.98608 27.0563C5.95822 26.8059 5.94261 26.551 5.94311 26.2926C5.95269 21.319 6.12939 14.9859 6.89819 12.3815C8.63886 6.47859 13.5158 3.51238 18.4089 3.48011C18.42 3.47991 18.4311 3.4793 18.4421 3.47913H18.6746C18.6856 3.4793 18.6967 3.47991 18.7078 3.48011Z" fill="#E7E7E8"/>
<path d="M16.6455 18.4287C17.3824 17.8253 18.4426 17.8253 19.1795 18.4287L34.2892 30.8004C35.7432 31.9909 34.9014 34.3478 33.0222 34.3478H2.8028C0.923596 34.3478 0.0817701 31.9909 1.53576 30.8004L16.6455 18.4287Z" fill="#E7E7E8"/>
<path d="M23.3545 35.6522C22.8711 37.6367 20.7653 39.1307 18.2412 39.1307C15.7172 39.1306 13.6113 37.6367 13.1279 35.6522H23.3545Z" fill="#E7E7E8"/>
<path d="M20.9557 2.6087C20.9557 4.04944 23.5644 5.21739 18.347 5.21739C13.1305 5.21739 15.7383 4.04944 15.7383 2.6087C15.7383 1.16795 16.9063 0 18.347 0C19.7878 0 20.9557 1.16795 20.9557 2.6087Z" fill="#E7E7E8"/>
</svg>
