<svg width="86" height="86" viewBox="0 0 86 86" fill="none" xmlns="http://www.w3.org/2000/svg">
<path d="M43 8C62.33 8 78 23.67 78 43C78 62.33 62.33 78 43 78C23.67 78 8 62.33 8 43C8 23.67 23.67 8 43 8ZM43 20C30.2975 20 20 30.2975 20 43C20 55.7025 30.2975 66 43 66C55.7025 66 66 55.7025 66 43C66 30.2975 55.7025 20 43 20Z" fill="#E7E7E8"/>
<path d="M34.4122 2.59646C34.6141 1.1092 35.8841 0 37.385 0H48.615C50.1159 0 51.3859 1.1092 51.5878 2.59646L52.538 9.59646C52.7824 11.3972 51.3825 13 49.5652 13H36.4348C34.6175 13 33.2176 11.3972 33.462 9.59646L34.4122 2.59646Z" fill="#E7E7E8"/>
<path d="M51.5878 83.4035C51.3859 84.8908 50.1159 86 48.615 86L37.385 86C35.8841 86 34.6141 84.8908 34.4122 83.4035L33.462 76.4035C33.2176 74.6028 34.6175 73 36.4348 73L49.5652 73C51.3825 73 52.7824 74.6028 52.538 76.4035L51.5878 83.4035Z" fill="#E7E7E8"/>
<path d="M83.4035 34.4122C84.8908 34.6141 86 35.8841 86 37.385L86 48.615C86 50.1159 84.8908 51.3859 83.4035 51.5878L76.4035 52.538C74.6028 52.7824 73 51.3825 73 49.5652L73 36.4348C73 34.6175 74.6028 33.2176 76.4035 33.462L83.4035 34.4122Z" fill="#E7E7E8"/>
<path d="M2.59646 51.5878C1.1092 51.3859 3.78201e-07 50.1159 5.75021e-07 48.615L2.04766e-06 37.385C2.24448e-06 35.8841 1.1092 34.6141 2.59646 34.4122L9.59646 33.462C11.3972 33.2176 13 34.6175 13 36.4348L13 49.5652C13 51.3825 11.3972 52.7824 9.59646 52.538L2.59646 51.5878Z" fill="#E7E7E8"/>
<path d="M65.4966 8.3579C66.691 7.449 68.3733 7.56267 69.4346 8.62396L77.3755 16.5648C78.4368 17.6261 78.5504 19.3084 77.6415 20.5028L73.3637 26.1245C72.2633 27.5706 70.14 27.7141 68.855 26.4291L59.5703 17.1444C58.2854 15.8595 58.4288 13.7362 59.875 12.6357L65.4966 8.3579Z" fill="#E7E7E8"/>
<path d="M20.5034 77.6421C19.309 78.551 17.6267 78.4373 16.5654 77.376L8.62453 69.4352C7.56323 68.3739 7.44957 66.6916 8.35846 65.4972L12.6363 59.8755C13.7368 58.4294 15.86 58.2859 17.145 59.5709L26.4297 68.8556C27.7146 70.1405 27.5712 72.2638 26.125 73.3643L20.5034 77.6421Z" fill="#E7E7E8"/>
<path d="M8.35802 20.5029C7.44913 19.3085 7.56279 17.6262 8.62409 16.5649L16.5649 8.62404C17.6262 7.56274 19.3085 7.44908 20.5029 8.35797L26.1246 12.6358C27.5707 13.7363 27.7142 15.8595 26.4292 17.1445L17.1446 26.4292C15.8596 27.7142 13.7363 27.5707 12.6359 26.1246L8.35802 20.5029Z" fill="#E7E7E8"/>
<path d="M77.642 65.4971C78.5509 66.6915 78.4372 68.3738 77.3759 69.4351L69.4351 77.376C68.3738 78.4373 66.6915 78.5509 65.4971 77.642L59.8754 73.3642C58.4293 72.2637 58.2858 70.1405 59.5708 68.8555L68.8554 59.5708C70.1404 58.2858 72.2637 58.4293 73.3641 59.8754L77.642 65.4971Z" fill="#E7E7E8"/>
</svg>
